{
	"asset":{
		"generator":"Khronos glTF Blender I/O v3.6.27",
		"version":"2.0"
	},
	"extensionsUsed":[
		"KHR_materials_specular",
		"KHR_materials_ior"
	],
	"scene":0,
	"scenes":[
		{
			"name":"Scene",
			"nodes":[
				0
			]
		}
	],
	"nodes":[
		{
			"mesh":0,
			"name":"Cube.013",
			"translation":[
				0.3019099831581116,
				2.842072010040283,
				0.17778021097183228
			]
		}
	],
	"materials":[
		{
			"doubleSided":true,
			"extensions":{
				"KHR_materials_specular":{
					"specularColorFactor":[
						0,
						0,
						0
					]
				},
				"KHR_materials_ior":{
					"ior":1.4500000476837158
				}
			},
			"name":"white",
			"pbrMetallicRoughness":{
				"metallicFactor":0,
				"roughnessFactor":0
			}
		},
		{
			"doubleSided":true,
			"extensions":{
				"KHR_materials_specular":{
					"specularColorFactor":[
						0,
						0,
						0
					]
				},
				"KHR_materials_ior":{
					"ior":1.4500000476837158
				}
			},
			"name":"black",
			"pbrMetallicRoughness":{
				"baseColorFactor":[
					0,
					0,
					0,
					1
				],
				"metallicFactor":0,
				"roughnessFactor":0
			}
		}
	],
	"meshes":[
		{
			"name":"Cube.014",
			"primitives":[
				{
					"attributes":{
						"POSITION":0,
						"NORMAL":1,
						"TEXCOORD_0":2
					},
					"indices":3,
					"material":0
				},
				{
					"attributes":{
						"POSITION":4,
						"NORMAL":5,
						"TEXCOORD_0":6
					},
					"indices":7,
					"material":1
				}
			]
		}
	],
	"accessors":[
		{
			"bufferView":0,
			"componentType":5126,
			"count":2139,
			"max":[
				0.9221321940422058,
				1.3000022172927856,
				0.990203857421875
			],
			"min":[
				-1.4376931190490723,
				-2.8118319511413574,
				-1.3511772155761719
			],
			"type":"VEC3"
		},
		{
			"bufferView":1,
			"componentType":5126,
			"count":2139,
			"type":"VEC3"
		},
		{
			"bufferView":2,
			"componentType":5126,
			"count":2139,
			"type":"VEC2"
		},
		{
			"bufferView":3,
			"componentType":5123,
			"count":5499,
			"type":"SCALAR"
		},
		{
			"bufferView":4,
			"componentType":5126,
			"count":3198,
			"max":[
				0.9221321940422058,
				1.3000022172927856,
				0.990203857421875
			],
			"min":[
				-1.4376931190490723,
				-2.8118319511413574,
				-1.3511772155761719
			],
			"type":"VEC3"
		},
		{
			"bufferView":5,
			"componentType":5126,
			"count":3198,
			"type":"VEC3"
		},
		{
			"bufferView":6,
			"componentType":5126,
			"count":3198,
			"type":"VEC2"
		},
		{
			"bufferView":7,
			"componentType":5123,
			"count":9699,
			"type":"SCALAR"
		}
	],
	"bufferViews":[
		{
			"buffer":0,
			"byteLength":25668,
			"byteOffset":0,
			"target":34962
		},
		{
			"buffer":0,
			"byteLength":25668,
			"byteOffset":25668,
			"target":34962
		},
		{
			"buffer":0,
			"byteLength":17112,
			"byteOffset":51336,
			"target":34962
		},
		{
			"buffer":0,
			"byteLength":10998,
			"byteOffset":68448,
			"target":34963
		},
		{
			"buffer":0,
			"byteLength":38376,
			"byteOffset":79448,
			"target":34962
		},
		{
			"buffer":0,
			"byteLength":38376,
			"byteOffset":117824,
			"target":34962
		},
		{
			"buffer":0,
			"byteLength":25584,
			"byteOffset":156200,
			"target":34962
		},
		{
			"buffer":0,
			"byteLength":19398,
			"byteOffset":181784,
			"target":34963
		}
	],
	"buffers":[
		{
			"byteLength":201184,
			"uri":"data:application/octet-stream;base64,"
		}
	]
}
