<?xml version="1.0" encoding="UTF-8" standalone="no"?>
<!-- Created with Inkscape (http://www.inkscape.org/) -->

<svg
   version="1.1"
   id="svg3751"
   width="700"
   height="748"
   viewBox="0 0 700 748"
   sodipodi:docname="ballSocketImg.svg"
   inkscape:version="1.2.1 (9c6d41e410, 2022-07-14)"
   xml:space="preserve"
   xmlns:inkscape="http://www.inkscape.org/namespaces/inkscape"
   xmlns:sodipodi="http://sodipodi.sourceforge.net/DTD/sodipodi-0.dtd"
   xmlns="http://www.w3.org/2000/svg"
   xmlns:svg="http://www.w3.org/2000/svg"><defs
     id="defs3755" /><sodipodi:namedview
     id="namedview3753"
     pagecolor="#ffffff"
     bordercolor="#000000"
     borderopacity="0.25"
     inkscape:showpageshadow="2"
     inkscape:pageopacity="0.0"
     inkscape:pagecheckerboard="0"
     inkscape:deskcolor="#d1d1d1"
     showgrid="false"
     inkscape:zoom="0.49629821"
     inkscape:cx="336.49124"
     inkscape:cy="297.20035"
     inkscape:window-width="1366"
     inkscape:window-height="706"
     inkscape:window-x="-8"
     inkscape:window-y="-8"
     inkscape:window-maximized="1"
     inkscape:current-layer="g3757" /><g
     inkscape:groupmode="layer"
     inkscape:label="Image"
     id="g3757"><path
       style="fill:none;stroke:#000000;stroke-width:0.965486;stroke-linecap:round"
       d="m 301.90501,308.7888 -7.28402,-32.31451 c -2.67376,-51.0744 149.05505,-85.09577 146.96275,25.88868 l 94.15632,94.97978 2.70563,33.78147 c -1.561,17.15999 -55.92569,51.80258 -71.83552,38.49785 l -102.73762,-104.72246 -7.65271,-0.86548"
       id="path3880"
       sodipodi:nodetypes="cccccccc" /><path
       style="fill:none;stroke:#000000;stroke-width:0.994469;stroke-linecap:round;stroke-dasharray:none"
       id="path3934"
       sodipodi:type="arc"
       sodipodi:cx="-277.87625"
       sodipodi:cy="724.07001"
       sodipodi:rx="27.854544"
       sodipodi:ry="22.154343"
       sodipodi:start="5.0435976"
       sodipodi:end="5.0410272"
       sodipodi:open="true"
       sodipodi:arc-type="arc"
       d="m -268.81834,703.11975 a 27.854544,22.154343 0 0 1 17.28855,28.14108 27.854544,22.154343 0 0 1 -35.37051,13.76867 27.854544,22.154343 0 0 1 -17.33401,-28.12338 27.854544,22.154343 0 0 1 35.34824,-13.80482"
       transform="matrix(0.66822591,-0.74395843,0.95053664,0.31061246,0,0)" /><path
       style="fill:none;stroke:#000000;stroke-width:0.965486;stroke-linecap:round;stroke-dasharray:none"
       d="m 467.18411,469.62207 -5.93084,-33.75352 c 12.12471,-22.75333 47.02987,-44.6206 74.3515,-38.3422"
       id="path4299"
       sodipodi:nodetypes="ccc" /><path
       style="fill:none;stroke:#000000;stroke-width:0.965486;stroke-linecap:round;stroke-dasharray:none"
       d="m 306.25243,310.99989 c -36.00848,-93.81318 56.33426,11.70506 47.39797,45.4624"
       id="path4310"
       sodipodi:nodetypes="cc" /><path
       style="fill:none;stroke:#000000;stroke-width:0.965486;stroke-linecap:round;stroke-dasharray:none"
       d="m 363.79655,364.90765 c -8.247,-38.72042 36.93327,-73.19935 77.65191,-62.29989"
       id="path4312"
       sodipodi:nodetypes="cc" /><path
       style="fill:none;stroke:#000000;stroke-width:0.965486;stroke-linecap:round;stroke-dasharray:none"
       d="m 199.02299,414.72307 c 6.52239,-1.68418 36.19405,21.71097 31.69241,31.27153"
       id="path4316"
       sodipodi:nodetypes="cc" /><path
       style="fill:none;stroke:#000000;stroke-width:0.965486;stroke-linecap:round;stroke-dasharray:none"
       d="m 203.93091,410.42359 c 13.05132,3.59875 31.46415,18.96951 35.48944,33.1477"
       id="path4318"
       sodipodi:nodetypes="cc" /><path
       style="fill:none;stroke:#000000;stroke-width:0.965486;stroke-linecap:round;stroke-dasharray:none"
       d="m 209.45593,405.11884 c 17.03256,7.28189 30.75957,19.63327 38.40389,33.71637"
       id="path4320"
       sodipodi:nodetypes="cc" /><path
       style="fill:none;stroke:#000000;stroke-width:0.965486;stroke-linecap:round;stroke-dasharray:none"
       d="m 215.12155,399.4235 c 19.08273,6.32666 32.27892,19.34166 39.50237,32.49629"
       id="path4322"
       sodipodi:nodetypes="cc" /><path
       style="fill:none;stroke:#000000;stroke-width:0.965486;stroke-linecap:round;stroke-dasharray:none"
       d="m 221.88567,393.18127 c 19.26311,5.83496 33.19442,19.78424 40.45895,32.48221"
       id="path4324"
       sodipodi:nodetypes="cc" /><path
       style="fill:none;stroke:#000000;stroke-width:0.965486;stroke-linecap:round;stroke-dasharray:none"
       d="m 228.24392,386.32706 c 18.26088,5.06154 30.54576,17.40086 40.17877,32.22001"
       id="path4326"
       sodipodi:nodetypes="cc" /><path
       style="fill:none;stroke:#000000;stroke-width:0.965486;stroke-linecap:round;stroke-dasharray:none"
       d="m 234.87274,380.57442 c 17.60372,6.97648 32.15854,17.46413 40.58461,31.94552"
       id="path4328"
       sodipodi:nodetypes="cc" /><path
       style="fill:none;stroke:#000000;stroke-width:0.965486;stroke-linecap:round;stroke-dasharray:none"
       d="m 240.96043,374.33218 c 19.1039,6.98112 31.70913,19.28102 40.99047,33.16949"
       id="path4330"
       sodipodi:nodetypes="cc" /><path
       style="fill:none;stroke:#000000;stroke-width:0.965486;stroke-linecap:round;stroke-dasharray:none"
       d="m 247.45397,368.21235 c 20.87113,6.86484 33.94683,18.76746 42.20801,33.78148"
       id="path4332"
       sodipodi:nodetypes="cc" /><path
       style="fill:none;stroke:#000000;stroke-width:0.965486;stroke-linecap:round;stroke-dasharray:none"
       d="m 253.40639,362.21491 c 21.22002,5.51327 33.52988,18.83608 43.29025,34.39346"
       id="path4334"
       sodipodi:nodetypes="cc" /><path
       style="fill:none;stroke:#000000;stroke-width:0.965486;stroke-linecap:round;stroke-dasharray:none"
       d="m 260.30577,355.7279 c 18.59334,7.29196 33.92119,18.10652 43.15498,35.49501"
       id="path4336"
       sodipodi:nodetypes="cc" /><path
       style="fill:none;stroke:#000000;stroke-width:0.965486;stroke-linecap:round;stroke-dasharray:none"
       d="m 265.92479,349.96041 c 23.60072,5.8124 35.63618,20.00474 44.16478,36.85623"
       id="path4338"
       sodipodi:nodetypes="cc" /><path
       style="fill:none;stroke:#000000;stroke-width:0.965486;stroke-linecap:round;stroke-dasharray:none"
       d="m 271.10911,343.72688 c 20.35444,8.21361 39.52349,21.83202 45.74456,37.82671"
       id="path4340"
       sodipodi:nodetypes="cc" /><path
       style="fill:none;stroke:#000000;stroke-width:0.965486;stroke-linecap:butt;stroke-linejoin:round;stroke-dasharray:none;paint-order:markers fill stroke"
       d="m 316.85621,381.56001 c -1.26777,1.93183 -3.02125,3.80086 -6.79178,5.40922 -2.46505,3.44076 -4.52917,3.61688 -6.64829,4.24081 -0.13792,3.36115 -2.56922,5.03644 -6.78714,5.39833 -0.30117,4.8429 -2.63692,6.61786 -6.7641,5.69144 -0.005,6.78745 -4.67108,6.90938 -7.71107,5.50787 2.85146,6.28158 -3.32588,7.51864 -6.49355,4.77345 0.41515,7.49695 -2.42487,8.51467 -7.10231,5.87503 1.22995,5.7481 -0.87303,8.11883 -6.02004,7.40501 -0.4968,4.74823 -2.0395,8.18969 -7.84637,6.30342 0.62404,4.36125 -2.22025,7.75131 -6.7641,6.54822 -0.8828,4.4558 -3.81571,5.99682 -8.26795,5.37775 -2.86967,1.8616 -5.91592,2.28528 -9.03977,2.07714 -6.80539,3.33129 -37.64624,-18.94035 -31.71092,-31.54656 0.61864,-1.65801 -1.75008,-4.18091 4.68729,-4.15428 -3.76497,-1.35532 -4.81338,-6.7384 5.57213,-5.47413 -9.01139,-1.66179 -5.00982,-8.90571 5.95331,-5.44685 -8.10736,-4.4171 -1.63312,-9.92498 6.69758,-6.43179 -8.84079,-4.56642 -0.50161,-9.77801 6.0265,-6.75071 -6.5295,-4.54607 1.82364,-8.27946 6.88745,-5.79867 -5.02073,-3.41976 -1.66539,-8.05631 5.9568,-6.11012 -4.53008,-3.79612 1.1219,-8.11435 6.28754,-6.35272 -2.14741,-6.10678 2.88272,-5.97552 6.31348,-6.05833 -1.1402,-4.29613 2.23964,-5.68416 6.79178,-6.31797 -0.0426,-3.47028 1.86013,-5.41523 5.64388,-5.88522 1.22879,-2.91164 2.82266,-5.16268 5.06991,-6.23142 l 4.79618,-4.64938 c -13.31232,-34.99267 14.26305,-21.4706 26.26411,-12.65291 l 32.98943,30.40044 c 24.63217,31.01079 3.28913,31.80189 -14.74574,23.86734 z"
       id="path4342"
       sodipodi:nodetypes="ccccccccccccccccccccccccccccccc" /><path
       style="fill:none;stroke:#000000;stroke-width:0.965486;stroke-linecap:butt;stroke-linejoin:round;stroke-dasharray:none;paint-order:markers fill stroke"
       d="m 274.62282,317.47159 c 2.29132,-3.35765 7.48876,-9.8817 10.90511,-10.73189 10.96054,-1.48646 20.19501,3.71993 29.41088,8.99839 l 32.57607,31.93858 c 9.56583,12.31511 14.19806,27.00406 -1.72186,32.54184"
       id="path4344"
       sodipodi:nodetypes="ccccc" /><path
       style="fill:none;stroke:#000000;stroke-width:0.965486;stroke-linecap:butt;stroke-linejoin:round;stroke-dasharray:none;paint-order:markers fill stroke"
       d="m 315.46916,315.481 17.21859,-13.06868"
       id="path4346" /><path
       style="fill:none;stroke:#000000;stroke-width:0.965486;stroke-linecap:butt;stroke-linejoin:round;stroke-dasharray:none;paint-order:markers fill stroke"
       d="m 347.42742,347.28253 6.08769,-2.57032"
       id="path4348" /><path
       style="fill:none;stroke:#000000;stroke-width:0.965486;stroke-linecap:butt;stroke-linejoin:round;stroke-dasharray:none;paint-order:markers fill stroke"
       d="m 275.67506,339.02191 8.89628,-9.17403 c 11.68359,-3.01803 49.10651,28.68207 44.72828,41.54679 l -9.23883,9.04022"
       id="path5829"
       sodipodi:nodetypes="cccc" /><path
       style="fill:none;stroke:#000000;stroke-width:1.10066;stroke-linecap:butt;stroke-linejoin:round;stroke-dasharray:none;paint-order:markers fill stroke"
       id="path6599"
       sodipodi:type="arc"
       sodipodi:cx="359.33218"
       sodipodi:cy="462.21289"
       sodipodi:rx="63.781021"
       sodipodi:ry="39.345695"
       sodipodi:start="5.0435976"
       sodipodi:end="5.0410272"
       sodipodi:open="true"
       sodipodi:arc-type="arc"
       d="m 380.07289,425.00563 a 63.781021,39.345695 0 0 1 39.58713,49.97803 63.781021,39.345695 0 0 1 -80.99101,24.4529 63.781021,39.345695 0 0 1 -39.69122,-49.94659 63.781021,39.345695 0 0 1 80.94,-24.5171" /><path
       style="fill:none;stroke:#000000;stroke-width:0.965486;stroke-linecap:butt;stroke-linejoin:round;stroke-dasharray:none;paint-order:markers fill stroke"
       d="m 307.43382,439.15735 c -7.01212,3.79327 -17.29262,9.2741 -19.66579,15.09983 l 0.81169,35.61743 c 3.72985,14.46873 5.66614,31.71927 11.63426,42.71641 20.50826,13.30775 44.06681,19.37115 70.34667,18.97148 21.01284,-0.76022 52.52482,-19.09722 59.89046,-38.4936 l -0.50164,-33.72041 -7.15107,-21.58343"
       id="path6601"
       sodipodi:nodetypes="cccccccc" /><path
       style="fill:none;stroke:#000000;stroke-width:0.965486;stroke-linecap:butt;stroke-linejoin:round;stroke-dasharray:none;paint-order:markers fill stroke"
       d="m 287.70038,454.25718 c 6.6778,14.03616 10.03644,28.08307 12.02469,43.42472 20.87692,1.96237 49.05352,6.19246 72.1884,19.11996 11.24501,-17.22883 47.69387,-28.29159 58.17129,-37.45337"
       id="path6603"
       sodipodi:nodetypes="cccc" /><path
       style="fill:none;stroke:#000000;stroke-width:0.965486;stroke-linecap:butt;stroke-linejoin:round;stroke-dasharray:none;paint-order:markers fill stroke"
       d="m 299.74049,497.70798 0.72905,34.89747"
       id="path6605"
       sodipodi:nodetypes="cc" /><path
       style="fill:none;stroke:#000000;stroke-width:1.06469;stroke-linecap:butt;stroke-linejoin:round;stroke-dasharray:none;paint-order:markers fill stroke"
       id="path6607"
       sodipodi:type="arc"
       sodipodi:cx="359.37656"
       sodipodi:cy="462.95789"
       sodipodi:rx="49.403065"
       sodipodi:ry="30.676092"
       sodipodi:start="5.0435976"
       sodipodi:end="5.0410272"
       sodipodi:open="true"
       sodipodi:arc-type="arc"
       d="m 375.44175,433.94904 a 49.403065,30.676092 0 0 1 30.66313,38.96564 49.403065,30.676092 0 0 1 -62.73346,19.06485 49.403065,30.676092 0 0 1 -30.74376,-38.94114 49.403065,30.676092 0 0 1 62.69395,-19.1149" /><path
       style="fill:none;stroke:#000000;stroke-width:0.965486;stroke-linecap:butt;stroke-linejoin:round;stroke-dasharray:none;paint-order:markers fill stroke"
       d="m 331.46414,488.03865 c 11.97078,-11.35652 47.90948,-10.53513 55.22304,-2.01583"
       id="path6609"
       sodipodi:nodetypes="cc" /><path
       style="fill:none;stroke:#000000;stroke-width:0.965486;stroke-linecap:butt;stroke-linejoin:round;stroke-dasharray:none;paint-order:markers fill stroke"
       d="m 326.86454,485.83552 c 13.44949,-15.46121 49.2401,-15.18712 64.00741,-2.88323"
       id="path6611"
       sodipodi:nodetypes="cc" /><path
       style="fill:none;stroke:#000000;stroke-width:0.993517;stroke-linecap:butt;stroke-linejoin:round;stroke-dasharray:none;paint-order:markers fill stroke"
       id="path6613"
       sodipodi:type="arc"
       sodipodi:cx="357.17041"
       sodipodi:cy="467.55975"
       sodipodi:rx="42.156319"
       sodipodi:ry="25.956848"
       sodipodi:start="5.0435976"
       sodipodi:end="5.0410272"
       sodipodi:open="true"
       sodipodi:arc-type="arc"
       d="m 370.87906,443.01366 a 42.156319,25.956848 0 0 1 26.16527,32.97113 42.156319,25.956848 0 0 1 -53.53133,16.13188 42.156319,25.956848 0 0 1 -26.23407,-32.95039 42.156319,25.956848 0 0 1 53.49762,-16.17424" /><path
       style="fill:none;stroke:#000000;stroke-width:0.965486;stroke-linecap:butt;stroke-linejoin:round;stroke-dasharray:none;paint-order:markers fill stroke"
       d="m 323.34721,482.89799 c 17.49544,-22.55556 57.79872,-17.21941 71.23183,-3.4095"
       id="path6615"
       sodipodi:nodetypes="cc" /><path
       style="fill:none;stroke:#000000;stroke-width:0.965486;stroke-linecap:butt;stroke-linejoin:round;stroke-dasharray:none;paint-order:markers fill stroke"
       d="m 320.50629,480.20527 c 13.69677,-28.24745 63.4599,-17.73743 76.84021,-4.89587"
       id="path6617"
       sodipodi:nodetypes="cc" /><path
       style="fill:none;stroke:#000000;stroke-width:0.965486;stroke-linecap:butt;stroke-linejoin:round;stroke-dasharray:none;paint-order:markers fill stroke"
       d="m 316.98895,475.5542 c 17.1354,-30.78074 71.41393,-21.65548 81.71038,-4.28389"
       id="path6619"
       sodipodi:nodetypes="cc" /><path
       style="fill:none;stroke:#000000;stroke-width:0.965486;stroke-linecap:butt;stroke-linejoin:round;stroke-dasharray:none;paint-order:markers fill stroke"
       d="m 315.17425,469.12657 c 21.80328,-32.00126 74.05846,-20.39875 83.86793,-4.57496"
       id="path6621"
       sodipodi:nodetypes="cc" /><path
       style="fill:none;stroke:#000000;stroke-width:0.965486;stroke-linecap:butt;stroke-linejoin:round;stroke-dasharray:none;paint-order:markers fill stroke"
       d="m 371.91347,517.04665 2.95985,34.0166"
       id="path6623" /></g></svg>
