<?xml version="1.0" encoding="UTF-8" standalone="no"?>
<!-- Created with Inkscape (http://www.inkscape.org/) -->

<svg
   version="1.1"
   id="svg3817"
   width="3120"
   height="4160"
   viewBox="0 0 3120 4160"
   sodipodi:docname="battery.svg"
   inkscape:version="1.2.1 (9c6d41e410, 2022-07-14)"
   xmlns:inkscape="http://www.inkscape.org/namespaces/inkscape"
   xmlns:sodipodi="http://sodipodi.sourceforge.net/DTD/sodipodi-0.dtd"
   xmlns="http://www.w3.org/2000/svg"
   xmlns:svg="http://www.w3.org/2000/svg">
  <defs
     id="defs3821" />
  <sodipodi:namedview
     id="namedview3819"
     pagecolor="#ffffff"
     bordercolor="#000000"
     borderopacity="0.25"
     inkscape:showpageshadow="2"
     inkscape:pageopacity="0.0"
     inkscape:pagecheckerboard="0"
     inkscape:deskcolor="#d1d1d1"
     showgrid="false"
     inkscape:zoom="0.063100962"
     inkscape:cx="2440.5333"
     inkscape:cy="1069.7143"
     inkscape:window-width="1366"
     inkscape:window-height="706"
     inkscape:window-x="-8"
     inkscape:window-y="-8"
     inkscape:window-maximized="1"
     inkscape:current-layer="g3823" />
  <g
     inkscape:groupmode="layer"
     inkscape:label="Image"
     id="g3823">
    <path
       style="fill:none;stroke:#000000;stroke-width:3.77953;stroke-linecap:round;stroke-linejoin:round;paint-order:markers fill stroke"
       d="m 938.97143,3613.2571 1184.60957,-57.4476 25.7523,-2038.4 -1202.43806,-39.619 z"
       id="path3944" />
    <path
       style="fill:none;stroke:#000000;stroke-width:3.77953;stroke-linecap:round;stroke-linejoin:round;paint-order:markers fill stroke"
       d="m 972.64762,1327.2381 -47.54286,-81.2191 -12.87619,2385.0667 1233.14283,-56.4571 26.7429,-2294.9334 -20.8912,79.2381 z"
       id="path3946" />
    <path
       style="fill:none;stroke:#000000;stroke-width:3.77953;stroke-linecap:round;stroke-linejoin:round;paint-order:markers fill stroke"
       d="m 1182.7239,1597.8044 236.2306,0.4455 c 30.2572,-2.8041 36.6486,37.6761 1.4008,39.2208 l -240.3128,0.4248 c -22.5474,-0.9827 -22.8092,-38.6131 2.6814,-40.0911 z"
       id="path3948"
       sodipodi:nodetypes="ccccc" />
    <path
       style="fill:none;stroke:#000000;stroke-width:3.77953;stroke-linecap:round;stroke-linejoin:round;paint-order:markers fill stroke"
       d="m 1182.7239,1672.5854 236.2306,0.4455 c 30.2572,-2.8041 36.6486,37.6761 1.4008,39.2208 l -240.3128,0.4248 c -22.5474,-0.9827 -22.8092,-38.6131 2.6814,-40.0911 z"
       id="path3950"
       sodipodi:nodetypes="ccccc" />
    <path
       style="fill:none;stroke:#000000;stroke-width:3.77953;stroke-linecap:round;stroke-linejoin:round;paint-order:markers fill stroke"
       d="m 1182.7239,1747.3664 236.2306,0.4455 c 30.2572,-2.8041 36.6486,37.6761 1.4008,39.2208 l -240.3128,0.4248 c -22.5474,-0.9827 -22.8092,-38.6131 2.6814,-40.0911 z"
       id="path3952"
       sodipodi:nodetypes="ccccc" />
    <path
       style="fill:none;stroke:#000000;stroke-width:3.77953;stroke-linecap:round;stroke-linejoin:round;paint-order:markers fill stroke"
       d="m 1182.7239,1826.5085 236.2306,0.4455 c 30.2572,-2.8041 36.6486,37.6761 1.4008,39.2208 l -240.3128,0.4248 c -22.5474,-0.9827 -22.8092,-38.6131 2.6814,-40.0911 z"
       id="path3954"
       sodipodi:nodetypes="ccccc" />
    <path
       style="fill:none;stroke:#000000;stroke-width:3.77953;stroke-linecap:round;stroke-linejoin:round;paint-order:markers fill stroke"
       d="m 1182.7239,1905.6506 236.2306,0.4455 c 30.2572,-2.8041 36.6486,37.6761 1.4008,39.2208 l -240.3128,0.4248 c -22.5474,-0.9827 -22.8092,-38.6131 2.6814,-40.0911 z"
       id="path3956"
       sodipodi:nodetypes="ccccc" />
    <path
       style="fill:none;stroke:#000000;stroke-width:3.77953;stroke-linecap:round;stroke-linejoin:round;paint-order:markers fill stroke"
       d="m 1682.9143,1911.5934 236.2306,0.4455 c 30.2572,-2.8041 36.6486,37.6761 1.4008,39.2208 l -240.3128,0.4248 c -22.5474,-0.9827 -22.8092,-38.6131 2.6814,-40.0911 z"
       id="path3958"
       sodipodi:nodetypes="ccccc" />
    <path
       style="fill:none;stroke:#000000;stroke-width:3.77953;stroke-linecap:round;stroke-linejoin:round;paint-order:markers fill stroke"
       d="m 1682.9143,1834.3363 236.2306,0.4455 c 30.2572,-2.8041 36.6486,37.6761 1.4008,39.2208 l -240.3128,0.4248 c -22.5474,-0.9827 -22.8092,-38.6131 2.6814,-40.0911 z"
       id="path3960"
       sodipodi:nodetypes="ccccc" />
    <path
       style="fill:none;stroke:#000000;stroke-width:3.77953;stroke-linecap:round;stroke-linejoin:round;paint-order:markers fill stroke"
       d="m 1682.9143,1763.022 236.2306,0.4455 c 30.2572,-2.8041 36.6486,37.6761 1.4008,39.2208 l -240.3128,0.4248 c -22.5474,-0.9827 -22.8092,-38.6131 2.6814,-40.0911 z"
       id="path3964"
       sodipodi:nodetypes="ccccc" />
    <path
       style="fill:none;stroke:#000000;stroke-width:3.77953;stroke-linecap:round;stroke-linejoin:round;paint-order:markers fill stroke"
       d="m 1682.9143,1680.8125 236.2306,0.4455 c 30.2572,-2.8041 36.6486,37.6761 1.4008,39.2208 l -240.3128,0.4248 c -22.5474,-0.9827 -22.8092,-38.6131 2.6814,-40.0911 z"
       id="path3966"
       sodipodi:nodetypes="ccccc" />
    <path
       style="fill:none;stroke:#000000;stroke-width:3.77953;stroke-linecap:round;stroke-linejoin:round;paint-order:markers fill stroke"
       d="m 1682.9143,1598.603 236.2306,0.4455 c 30.2572,-2.8041 36.6486,37.6761 1.4008,39.2208 l -240.3128,0.4248 c -22.5474,-0.9827 -22.8092,-38.6131 2.6814,-40.0911 z"
       id="path3968"
       sodipodi:nodetypes="ccccc" />
    <path
       style="fill:none;stroke:#000000;stroke-width:3.77953;stroke-linecap:round;stroke-linejoin:round;paint-order:markers fill stroke"
       d="m 1516.4191,3091.2762 c 22.3719,-46.5862 10.0479,-75.2649 84.1904,-148.5714 45.5009,-37.8277 3.4922,-100.2858 -56.4571,-32.6857 -44.9193,41.1873 -76.2,95.1039 -93.1048,162.438 -14.5765,48.9033 49.8625,73.4756 65.3715,18.8191 z"
       id="path3970"
       sodipodi:nodetypes="ccccc" />
    <path
       style="fill:none;stroke:#000000;stroke-width:3.77953;stroke-linecap:round;stroke-linejoin:round;paint-order:markers fill stroke"
       d="m 1514.9056,3171.2864 c 11.7575,71.0138 50.8191,118.1364 93.8499,161.786 33.1508,34.1219 -13.418,70.1699 -36.4194,49.0261 -47.5983,-50.6941 -98.8331,-96.8425 -117.6626,-183.4976 -16.2465,-63.5906 56.1025,-62.6309 60.2321,-27.3145 z"
       id="path3972"
       sodipodi:nodetypes="ccccc" />
    <path
       style="fill:none;stroke:#000000;stroke-width:3.77953;stroke-linecap:round;stroke-linejoin:round;paint-order:markers fill stroke"
       d="m 1673.8901,3365.2895 c 79.5138,24.734 127.8584,11.3721 174.3927,-4.2022 62.4503,-16.4237 60.0637,40.1541 22.412,58.1309 -79.9696,27.4864 -152.3122,26.6443 -219.2166,5.603 -29.3025,-8.9745 -29.3025,-64.4524 22.4119,-59.5317 z"
       id="path3974"
       sodipodi:nodetypes="ccccc" />
    <path
       style="fill:none;stroke:#000000;stroke-width:3.77953;stroke-linecap:round;stroke-linejoin:round;paint-order:markers fill stroke"
       d="m 1639.5719,3239.9229 c 25.0669,26.5868 54.8412,39.0513 85.4454,49.026 56.7811,16.0827 26.3288,74.2647 -16.1086,62.3332 -34.3811,-15.3004 -62.3719,-17.8203 -114.1607,-67.9361 -16.3289,-22.2919 12.0583,-71.9253 44.8239,-43.4231 z"
       id="path3976"
       sodipodi:nodetypes="ccccc" />
    <path
       style="fill:none;stroke:#000000;stroke-width:3.77953;stroke-linecap:round;stroke-linejoin:round;paint-order:markers fill stroke"
       d="m 1609.4558,3076.7361 c -12.5528,36.5323 -8.4291,68.8816 -2.8014,100.8536 9.414,54.0161 -62.502,56.6372 -62.502,17.5093 -3.9179,-41.8159 -8.8639,-83.8838 0,-122.5651 5.0996,-47.562 68.9707,-43.0735 65.3034,4.2022 z"
       id="path3978"
       sodipodi:nodetypes="ccccc" />
    <path
       style="fill:none;stroke:#000000;stroke-width:3.77953;stroke-linecap:round;stroke-linejoin:round;paint-order:markers fill stroke"
       d="m 1597.5495,2970.9799 c 24.1472,-30.8062 73.5081,-51.3215 114.1607,-67.2358 39.0881,-12.8428 70.9212,40.0492 24.8735,57.8056 -31.4135,5.1899 -55.7301,20.621 -95.0661,57.501 -43.0411,27.395 -63.4679,-21.4314 -43.9681,-48.0708 z"
       id="path3980"
       sodipodi:nodetypes="ccccc" />
    <path
       style="fill:none;stroke:#000000;stroke-width:3.77953;stroke-linecap:round;stroke-linejoin:round;paint-order:markers fill stroke"
       d="m 1656.0762,2832.2667 c 88.6979,-36.0175 158.8454,-25.1133 225.3333,-4.9524 51.8433,22.5124 10.739,72.5546 -35.1619,54.4762 -48.3615,-12.3776 -97.7549,-16.8437 -150.0571,0.9905 -54.8978,20.7993 -84.6964,-36.9533 -40.1143,-50.5143 z"
       id="path3982"
       sodipodi:nodetypes="ccccc" />
    <path
       style="fill:none;stroke:#000000;stroke-width:3.77953;stroke-linecap:round;stroke-linejoin:round;paint-order:markers fill stroke"
       d="m 1801.3579,3288.2486 c 35.3991,-8.6398 62.5909,-27.3108 86.1458,-50.4268 22.2626,-26.6283 69.5285,-8.3828 50.4268,29.9682 -33.1028,38.2001 -69.1407,68.6955 -112.7599,79.2899 -34.496,9.1567 -67.6024,-36.1172 -23.8127,-58.8313 z"
       id="path3984"
       sodipodi:nodetypes="ccccc" />
    <path
       style="fill:none;stroke:#000000;stroke-width:3.77953;stroke-linecap:round;stroke-linejoin:round;paint-order:markers fill stroke"
       d="m 1819.5676,2899.8689 c 59.365,10.0159 80.821,35.5085 114.6414,64.5792 39.7503,43.5223 -20.5618,67.9311 -43.2034,43.6515 -27.4653,-32.5609 -55.97,-41.2164 -84.7451,-43.6515 -27.8471,-9.0958 -36.2661,-64.5792 13.3071,-64.5792 z"
       id="path3986"
       sodipodi:nodetypes="ccccc" />
    <path
       style="fill:none;stroke:#000000;stroke-width:3.77953;stroke-linecap:round;stroke-linejoin:round;paint-order:markers fill stroke"
       d="m 1927.4667,3073.4476 c -7.2527,-45.3423 51.3964,-64.1289 59.4285,-16.8381 10.4114,40.2075 9.2739,82.8463 1.981,126.781 -18.387,51.6413 -75.981,22.8989 -58.9333,-24.2667 5.876,-28.5587 4.7197,-57.1175 -2.4762,-85.6762 z"
       id="path3988"
       sodipodi:nodetypes="ccccc" />
    <path
       style="fill:none;stroke:#000000;stroke-width:3.77953;stroke-linecap:round;stroke-linejoin:round;paint-order:markers fill stroke"
       d="m 1965.6,2875.8476 c 59.7069,43.3933 89.8543,114.2347 112.9143,191.6572 10.9952,43.0508 -51.274,52.4346 -56.4572,23.2762 -19.1238,-73.4279 -45.229,-135.3366 -90.6285,-165.4096 -30.5355,-24.3901 5.4852,-73.3676 34.1714,-49.5238 z"
       id="path3990"
       sodipodi:nodetypes="ccccc" />
    <path
       style="fill:none;stroke:#000000;stroke-width:3.77953;stroke-linecap:round;stroke-linejoin:round;paint-order:markers fill stroke"
       d="m 1929.9429,3313.1429 c 46.4864,-42.4511 73.2799,-92.5605 86.1714,-148.0762 26.3069,-57.2939 69.7967,-31.2348 59.4286,8.419 -11.4731,66.7154 -40.3673,129.0754 -104,182.7509 -41.0584,30.3727 -79.0997,-9.2229 -41.6,-43.0937 z"
       id="path3992"
       sodipodi:nodetypes="ccccc" />
    <path
       style="fill:none;stroke:#000000;stroke-width:3.77953;stroke-linecap:round;stroke-linejoin:round;paint-order:markers fill stroke"
       id="path4046"
       sodipodi:type="arc"
       sodipodi:cx="1723.6166"
       sodipodi:cy="3078.8372"
       sodipodi:rx="21.011173"
       sodipodi:ry="21.011173"
       sodipodi:start="4.7081542"
       sodipodi:end="4.6379606"
       sodipodi:open="true"
       sodipodi:arc-type="arc"
       d="m 1723.5276,3057.8262 a 21.011173,21.011173 0 0 1 21.0952,20.5533 21.011173,21.011173 0 0 1 -20.18,21.4526 21.011173,21.011173 0 0 1 -21.8034,-19.8005 21.011173,21.011173 0 0 1 19.4148,-22.1474" />
    <path
       style="fill:none;stroke:#000000;stroke-width:3.77953;stroke-linecap:round;stroke-linejoin:round;paint-order:markers fill stroke"
       id="path4052"
       sodipodi:type="arc"
       sodipodi:cx="1723.6166"
       sodipodi:cy="3174.0879"
       sodipodi:rx="21.011173"
       sodipodi:ry="21.011173"
       sodipodi:start="4.7081542"
       sodipodi:end="4.6379606"
       sodipodi:open="true"
       sodipodi:arc-type="arc"
       d="m 1723.5276,3153.0769 a 21.011173,21.011173 0 0 1 21.0952,20.5533 21.011173,21.011173 0 0 1 -20.18,21.4526 21.011173,21.011173 0 0 1 -21.8034,-19.8004 21.011173,21.011173 0 0 1 19.4148,-22.1475" />
    <path
       style="fill:none;stroke:#000000;stroke-width:3.77953;stroke-linecap:round;stroke-linejoin:round;paint-order:markers fill stroke"
       id="path4054"
       sodipodi:type="arc"
       sodipodi:cx="1816.0658"
       sodipodi:cy="3174.0879"
       sodipodi:rx="21.011173"
       sodipodi:ry="21.011173"
       sodipodi:start="4.7081542"
       sodipodi:end="4.6379606"
       sodipodi:open="true"
       sodipodi:arc-type="arc"
       d="m 1815.9768,3153.0769 a 21.011173,21.011173 0 0 1 21.0952,20.5533 21.011173,21.011173 0 0 1 -20.18,21.4526 21.011173,21.011173 0 0 1 -21.8034,-19.8004 21.011173,21.011173 0 0 1 19.4148,-22.1475" />
    <path
       style="fill:none;stroke:#000000;stroke-width:3.77953;stroke-linecap:round;stroke-linejoin:round;paint-order:markers fill stroke"
       id="path4056"
       sodipodi:type="arc"
       sodipodi:cx="1816.0658"
       sodipodi:cy="3078.8372"
       sodipodi:rx="21.011173"
       sodipodi:ry="21.011173"
       sodipodi:start="4.7081542"
       sodipodi:end="4.6379606"
       sodipodi:open="true"
       sodipodi:arc-type="arc"
       d="m 1815.9768,3057.8262 a 21.011173,21.011173 0 0 1 21.0952,20.5533 21.011173,21.011173 0 0 1 -20.18,21.4526 21.011173,21.011173 0 0 1 -21.8034,-19.8005 21.011173,21.011173 0 0 1 19.4148,-22.1474" />
    <path
       style="fill:#1b0bb4;stroke:#000000;stroke-width:3.77953;stroke-linecap:round;stroke-linejoin:round;paint-order:markers fill stroke;fill-opacity:1"
       d="m 1490.5037,1341.1647 -0.3588,-82.5354 c -1.4648,-26.7545 -62.0915,-32.1795 -68.0386,-0.06 l -0.7151,80.7368 z"
       id="path4060"
       sodipodi:nodetypes="cccc" />
    <path
       style="fill:#1b0bb4;fill-opacity:1;stroke:#000000;stroke-width:3.77953;stroke-linecap:round;stroke-linejoin:round;paint-order:markers fill stroke"
       d="m 1753.7667,1348.2446 -0.3588,-82.5354 c -1.4648,-26.7545 -62.0915,-32.1795 -68.0386,-0.06 l -0.7151,80.7368 z"
       id="path5505"
       sodipodi:nodetypes="cccc" />
    <path
       style="fill:#ff0000;fill-opacity:1;stroke:#000000;stroke-width:3.77953;stroke-linecap:round;stroke-linejoin:round;paint-order:markers fill stroke"
       d="M 1966.6628,844.39458 C 1731.7006,857.52145 1586.559,1010.0687 1435.2,1241.6635 c 20.3969,-7.7846 53.0551,-7.0799 54.9449,16.9658 93.6678,-195.4695 307.2978,-375.73699 434.9695,-365.00924 z"
       id="path5507"
       sodipodi:nodetypes="ccccc" />
    <path
       style="fill:#ffc200;fill-opacity:1;stroke:#000000;stroke-width:3.77953;stroke-linecap:round;stroke-linejoin:round;paint-order:markers fill stroke"
       d="m 2698.0571,1260.5191 c -238.0152,-216.7685 -394.7873,-549.79874 -663.619,-461.20481 -109.4413,28.7318 -223.3687,300.09801 -333.0684,447.54901 l 52.0382,18.8459 c 121.0224,-156.4798 203.4704,-449.83121 369.5928,-446.28456 254.5911,64.85813 371.0828,324.98026 556.6242,487.47036 z"
       id="path5511"
       sodipodi:nodetypes="ccccccc" />
    <path
       style="fill:#ff0000;fill-opacity:1;stroke:#000000;stroke-width:3.77953;stroke-linecap:round;stroke-linejoin:round;paint-order:markers fill stroke"
       d="m 2653.0108,1340.5128 c -207.5262,-187.8073 -422.091,-553.73711 -652.2583,-464.05633 35.5091,-23.32024 57.1922,-58.01109 122.2482,-57.03183 208.8453,21.63726 478.3249,436.87256 556.6242,487.47036 z"
       id="path11369"
       sodipodi:nodetypes="ccccc" />
  </g>
</svg>
