{
	"asset":{
		"generator":"Khronos glTF Blender I/O v3.6.27",
		"version":"2.0"
	},
	"extensionsUsed":[
		"KHR_materials_specular",
		"KHR_materials_ior"
	],
	"scene":0,
	"scenes":[
		{
			"name":"Scene",
			"nodes":[
				0
			]
		}
	],
	"nodes":[
		{
			"mesh":0,
			"name":"Cylinder.019",
			"rotation":[
				0,
				-0.6025151610374451,
				0,
				0.7981074452400208
			],
			"translation":[
				1.051712989807129,
				4.413786888122559,
				-1.0654486417770386
			]
		}
	],
	"materials":[
		{
			"doubleSided":true,
			"extensions":{
				"KHR_materials_specular":{
					"specularColorFactor":[
						0,
						0,
						0
					]
				},
				"KHR_materials_ior":{
					"ior":1.4500000476837158
				}
			},
			"name":"white",
			"pbrMetallicRoughness":{
				"metallicFactor":0,
				"roughnessFactor":0
			}
		},
		{
			"doubleSided":true,
			"extensions":{
				"KHR_materials_specular":{
					"specularColorFactor":[
						0,
						0,
						0
					]
				},
				"KHR_materials_ior":{
					"ior":1.4500000476837158
				}
			},
			"name":"black",
			"pbrMetallicRoughness":{
				"baseColorFactor":[
					0,
					0,
					0,
					1
				],
				"metallicFactor":0,
				"roughnessFactor":0
			}
		}
	],
	"meshes":[
		{
			"name":"Cylinder.032",
			"primitives":[
				{
					"attributes":{
						"POSITION":0,
						"NORMAL":1,
						"TEXCOORD_0":2
					},
					"indices":3,
					"material":0
				},
				{
					"attributes":{
						"POSITION":4,
						"NORMAL":5,
						"TEXCOORD_0":6
					},
					"indices":7,
					"material":1
				}
			]
		}
	],
	"accessors":[
		{
			"bufferView":0,
			"componentType":5126,
			"count":2003,
			"max":[
				0.3960080146789551,
				0.027147725224494934,
				0.5262451171875
			],
			"min":[
				-0.523229718208313,
				-0.02714771032333374,
				-0.3856925964355469
			],
			"type":"VEC3"
		},
		{
			"bufferView":1,
			"componentType":5126,
			"count":2003,
			"type":"VEC3"
		},
		{
			"bufferView":2,
			"componentType":5126,
			"count":2003,
			"type":"VEC2"
		},
		{
			"bufferView":3,
			"componentType":5123,
			"count":6408,
			"type":"SCALAR"
		},
		{
			"bufferView":4,
			"componentType":5126,
			"count":2281,
			"max":[
				0.3960080146789551,
				0.027147725224494934,
				0.5262451171875
			],
			"min":[
				-0.5203300714492798,
				-0.02714771032333374,
				-0.3856925964355469
			],
			"type":"VEC3"
		},
		{
			"bufferView":5,
			"componentType":5126,
			"count":2281,
			"type":"VEC3"
		},
		{
			"bufferView":6,
			"componentType":5126,
			"count":2281,
			"type":"VEC2"
		},
		{
			"bufferView":7,
			"componentType":5123,
			"count":6012,
			"type":"SCALAR"
		}
	],
	"bufferViews":[
		{
			"buffer":0,
			"byteLength":24036,
			"byteOffset":0,
			"target":34962
		},
		{
			"buffer":0,
			"byteLength":24036,
			"byteOffset":24036,
			"target":34962
		},
		{
			"buffer":0,
			"byteLength":16024,
			"byteOffset":48072,
			"target":34962
		},
		{
			"buffer":0,
			"byteLength":12816,
			"byteOffset":64096,
			"target":34963
		},
		{
			"buffer":0,
			"byteLength":27372,
			"byteOffset":76912,
			"target":34962
		},
		{
			"buffer":0,
			"byteLength":27372,
			"byteOffset":104284,
			"target":34962
		},
		{
			"buffer":0,
			"byteLength":18248,
			"byteOffset":131656,
			"target":34962
		},
		{
			"buffer":0,
			"byteLength":12024,
			"byteOffset":149904,
			"target":34963
		}
	],
	"buffers":[
		{
			"byteLength":161928,
			"uri":"data:application/octet-stream;base64,"
		}
	]
}
