<?xml version="1.0" encoding="UTF-8" standalone="no"?>
<!-- Created with Inkscape (http://www.inkscape.org/) -->

<svg
   width="210mm"
   height="297mm"
   viewBox="0 0 210 297"
   version="1.1"
   id="svg13655"
   inkscape:version="1.2.2 (732a01da63, 2022-12-09)"
   sodipodi:docname="plate1.svg"
   inkscape:export-filename="plate1.png"
   inkscape:export-xdpi="96"
   inkscape:export-ydpi="96"
   xmlns:inkscape="http://www.inkscape.org/namespaces/inkscape"
   xmlns:sodipodi="http://sodipodi.sourceforge.net/DTD/sodipodi-0.dtd"
   xmlns="http://www.w3.org/2000/svg"
   xmlns:svg="http://www.w3.org/2000/svg">
  <sodipodi:namedview
     id="namedview13657"
     pagecolor="#ffffff"
     bordercolor="#000000"
     borderopacity="0.25"
     inkscape:showpageshadow="2"
     inkscape:pageopacity="0.0"
     inkscape:pagecheckerboard="0"
     inkscape:deskcolor="#d1d1d1"
     inkscape:document-units="mm"
     showgrid="false"
     inkscape:zoom="0.66142459"
     inkscape:cx="547.30351"
     inkscape:cy="514.04197"
     inkscape:window-width="1920"
     inkscape:window-height="974"
     inkscape:window-x="-11"
     inkscape:window-y="-11"
     inkscape:window-maximized="1"
     inkscape:current-layer="layer1" />
  <defs
     id="defs13652" />
  <g
     inkscape:label="Layer 1"
     inkscape:groupmode="layer"
     id="layer1">
    <path
       style="fill:none;stroke:#000000;stroke-width:1.5;stroke-linecap:round;stroke-linejoin:round;stroke-dasharray:none;paint-order:markers fill stroke"
       d="m 95.451736,149.52329 -31.968274,0.0707 -19.529983,3.33156 -13.089236,10.58717 19.925781,3.65591 86.657096,0.11912 28.55711,-4.55774 -1.7382,-10.66845 -24.06709,-2.54926 -34.99422,0.03"
       id="path10890"
       inkscape:export-filename="plate1.png"
       inkscape:export-xdpi="96"
       inkscape:export-ydpi="96"
       sodipodi:nodetypes="cccccccccc" />
    <path
       style="fill:none;stroke:#000000;stroke-width:1.5;stroke-linecap:round;stroke-linejoin:round;stroke-dasharray:none;paint-order:markers fill stroke"
       id="path14152"
       sodipodi:type="arc"
       sodipodi:cx="100.29073"
       sodipodi:cy="156.0999"
       sodipodi:rx="4.8385711"
       sodipodi:ry="1.5557117"
       sodipodi:start="5.0435976"
       sodipodi:end="5.0410272"
       sodipodi:open="true"
       sodipodi:arc-type="arc"
       d="m 101.86417,154.62874 a 4.8385711,1.5557117 0 0 1 3.00317,1.97611 4.8385711,1.5557117 0 0 1 -6.144161,0.96686 4.8385711,1.5557117 0 0 1 -3.011065,-1.97487 4.8385711,1.5557117 0 0 1 6.140286,-0.9694" />
    <path
       style="fill:none;stroke:#000000;stroke-width:1.5;stroke-linecap:round;stroke-dasharray:none"
       d="m 95.584919,143.60776 -0.06782,12.47999"
       id="path2790"
       sodipodi:nodetypes="cc" />
    <path
       style="fill:none;stroke:#000000;stroke-width:1.5;stroke-linecap:round;stroke-dasharray:none"
       d="m 105.05558,143.86027 0.10024,11.94107"
       id="path2792"
       sodipodi:nodetypes="cc" />
    <path
       style="fill:none;stroke:#000000;stroke-width:1.5;stroke-linecap:round;stroke-dasharray:none"
       id="path2796"
       sodipodi:type="arc"
       sodipodi:cx="100.2743"
       sodipodi:cy="143.88235"
       sodipodi:rx="4.7126136"
       sodipodi:ry="1.6566013"
       sodipodi:start="5.0435976"
       sodipodi:end="5.0410272"
       sodipodi:open="true"
       sodipodi:arc-type="arc"
       d="m 101.80678,142.31579 a 4.7126136,1.6566013 0 0 1 2.92499,2.10426 4.7126136,1.6566013 0 0 1 -5.984219,1.02956 4.7126136,1.6566013 0 0 1 -2.93268,-2.10294 4.7126136,1.6566013 0 0 1 5.980449,-1.03226" />
    <path
       style="fill:none;stroke:#000000;stroke-width:1.5;stroke-linecap:round;stroke-dasharray:none"
       d="m 95.654879,146.60747 c 2.72268,1.51451 5.663161,2.11383 9.050471,0.05"
       id="path2802"
       sodipodi:nodetypes="cc" />
    <path
       style="fill:none;stroke:#000000;stroke-width:1.5;stroke-linecap:round;stroke-dasharray:none"
       d="m 95.654879,149.70763 c 2.72268,1.51451 5.663161,2.11383 9.050471,0.05"
       id="path2804"
       sodipodi:nodetypes="cc" />
    <path
       style="fill:none;stroke:#000000;stroke-width:1.5;stroke-linecap:round;stroke-dasharray:none"
       d="m 95.754884,153.1078 c 2.72268,1.51451 5.663166,2.11383 9.050476,0.05"
       id="path2806"
       sodipodi:nodetypes="cc" />
  </g>
</svg>
