<?xml version="1.0" encoding="UTF-8" standalone="no"?>
<!-- Created with Inkscape (http://www.inkscape.org/) -->

<svg
   version="1.1"
   id="svg132"
   width="1200"
   height="1600"
   viewBox="0 0 1200 1600"
   sodipodi:docname="platewithbolt.svg"
   inkscape:version="1.2.2 (732a01da63, 2022-12-09)"
   xmlns:inkscape="http://www.inkscape.org/namespaces/inkscape"
   xmlns:sodipodi="http://sodipodi.sourceforge.net/DTD/sodipodi-0.dtd"
   xmlns="http://www.w3.org/2000/svg"
   xmlns:svg="http://www.w3.org/2000/svg">
  <defs
     id="defs136">
    <inkscape:path-effect
       effect="bspline"
       id="path-effect1186"
       is_visible="true"
       lpeversion="1"
       weight="33.333333"
       steps="2"
       helper_size="0"
       apply_no_weight="true"
       apply_with_weight="true"
       only_selected="false" />
    <inkscape:path-effect
       effect="bspline"
       id="path-effect1180"
       is_visible="true"
       lpeversion="1"
       weight="33.333333"
       steps="2"
       helper_size="0"
       apply_no_weight="true"
       apply_with_weight="true"
       only_selected="false" />
  </defs>
  <sodipodi:namedview
     id="namedview134"
     pagecolor="#ffffff"
     bordercolor="#000000"
     borderopacity="0.25"
     inkscape:showpageshadow="2"
     inkscape:pageopacity="0.0"
     inkscape:pagecheckerboard="0"
     inkscape:deskcolor="#d1d1d1"
     showgrid="false"
     inkscape:zoom="0.231875"
     inkscape:cx="-1250.6739"
     inkscape:cy="1043.6658"
     inkscape:window-width="1920"
     inkscape:window-height="974"
     inkscape:window-x="-11"
     inkscape:window-y="-11"
     inkscape:window-maximized="1"
     inkscape:current-layer="g138" />
  <g
     inkscape:groupmode="layer"
     inkscape:label="Image"
     id="g138">
    <path
       style="fill:none;stroke:#000000;stroke-width:5.36692913;stroke-linecap:round;stroke-dasharray:none"
       d="m 61.752722,775.33973 295.803158,69.37651 365.17968,6.09904 359.84304,-64.03986 -77.1878,-29.9021 -216.71155,-16.71159 -121.83289,-9.70351 -38.27493,1.07817"
       id="path300" />
    <path
       style="fill:none;stroke:#000000;stroke-width:5.36692913;stroke-linecap:round;stroke-dasharray:none"
       d="M 61.994609,770.48518 314.86264,735.696 522.99219,730.35935"
       id="path856" />
    <path
       style="fill:none;stroke:#000000;stroke-width:3.09921;stroke-linecap:round;stroke-dasharray:none"
       d="m 523.39814,736.22715 2.07178,-44.17736 c 11.87286,-0.62253 22.64426,4.34096 30.30458,12.76986 13.81083,-8.0633 30.1793,-13.74776 51.07941,-2.28714 3.32406,-7.36432 17.23604,-5.20715 20.96543,-5.33666 l 1.90595,34.30707 c -6.2261,0.36015 -12.4522,3.36421 -18.6783,5.33665 -14.88693,0.26521 -33.50033,-3.33899 -56.16568,0.5774 z"
       id="path1154"
       sodipodi:nodetypes="ccccccccc" />
    <path
       style="fill:none;stroke:#000000;stroke-width:3.09921;stroke-linecap:round;stroke-dasharray:none"
       d="m 555.01212,703.67608 -1.03192,32.21216"
       id="path1156"
       sodipodi:nodetypes="cc" />
    <path
       style="fill:none;stroke:#000000;stroke-width:3.09921;stroke-linecap:round;stroke-dasharray:none"
       d="m 607.2351,702.15132 1.90594,33.1635"
       id="path1158" />
    <path
       style="fill:none;stroke:#000000;stroke-width:3.09921;stroke-linecap:round;stroke-dasharray:none"
       d="m 525.66051,691.8592 18.86889,-1.33417 c 20.77004,4.30689 44.7307,4.13085 64.23046,-0.76237 l 18.48769,6.67081"
       id="path1160"
       sodipodi:nodetypes="cccc" />
    <path
       style="fill:none;stroke:#000000;stroke-width:3.09921;stroke-linecap:round;stroke-dasharray:none"
       d="m 545.76827,690.81093 c -2.69957,-2.06478 -2.98414,-4.12956 -0.0953,-6.19434 -2.79367,-3.29801 -2.07525,-6.16108 0.19059,-8.19557 -3.40576,-3.28217 -2.3692,-5.9284 -0.28589,-8.19558 -2.22923,-1.68515 -2.24412,-4.26801 0.28589,-6.95671 -2.1564,-2.25859 -3.51293,-3.97155 0,-7.14731 21.12655,4.2886 41.89475,3.56035 62.51511,0.76238 3.11195,2.97312 2.21002,4.86468 -0.1906,7.14731 3.34361,2.4088 2.09371,4.6088 -0.0953,6.76611 3.56614,2.07786 2.41414,4.566 0.1906,7.14731 2.09996,1.68347 3.27809,3.80591 0.0953,8.00498 2.5743,0.95388 2.84313,2.73822 0.0953,5.71785"
       id="path1166"
       sodipodi:nodetypes="cccccccccccc" />
    <path
       style="fill:none;stroke:#000000;stroke-width:3.09921;stroke-linecap:round;stroke-dasharray:none"
       d="m 545.67297,684.0448 c 20.2242,3.23491 40.44866,2.51413 62.70569,-0.85767"
       id="path1168"
       sodipodi:nodetypes="cc" />
    <path
       style="fill:none;stroke:#000000;stroke-width:3.09921;stroke-linecap:round;stroke-dasharray:none"
       d="m 545.67297,676.03982 c 20.2242,3.23491 40.44866,3.18121 62.70569,-0.19059"
       id="path1170"
       sodipodi:nodetypes="cc" />
    <path
       style="fill:none;stroke:#000000;stroke-width:3.09921;stroke-linecap:round;stroke-dasharray:none"
       d="m 545.86357,668.60662 c 20.55006,3.88664 39.93853,4.18254 61.76229,-0.0558"
       id="path1172"
       sodipodi:nodetypes="cc" />
    <path
       style="fill:none;stroke:#000000;stroke-width:3.09921;stroke-linecap:round;stroke-dasharray:none"
       d="m 545.86357,660.79224 c 16.3285,4.05506 33.99741,5.23655 61.94331,0.66709"
       id="path1174"
       sodipodi:nodetypes="cc" />
    <path
       style="fill:none;stroke:#000000;stroke-width:3.09921;stroke-linecap:round;stroke-dasharray:none"
       d="m 522.81576,735.53327 c -8.13046,4.57564 -16.26108,9.15136 6.20012,11.07776 22.46121,1.92639 75.51066,1.20312 97.37546,-1.71664 21.8648,-2.91975 12.54191,-8.03642 3.21762,-13.15386"
       id="path1178"
       inkscape:path-effect="#path-effect1180"
       inkscape:original-d="m 522.81576,735.53327 c -8.12979,4.57682 -16.26042,9.15255 -24.39238,13.72747 53.05372,-0.72231 106.10317,-1.44557 159.15484,-2.16988 -9.32227,-5.11588 -18.64516,-10.23255 -27.96926,-15.35033"
       sodipodi:nodetypes="cccc" />
    <path
       style="fill:none;stroke:#000000;stroke-width:3.09921;stroke-linecap:round;stroke-dasharray:none"
       d="m 510.49858,750.89715 c -12.02092,4.46331 -24.04214,8.92673 4.30168,10.95422 28.34382,2.02749 97.04846,1.6187 125.23642,-0.66101 28.18796,-2.27971 15.85525,-6.43054 3.52108,-10.58186"
       id="path1182"
       inkscape:path-effect="#path-effect1186"
       inkscape:original-d="m 510.49858,750.89715 c -12.02047,4.46451 -24.0417,8.92793 -36.06442,13.39054 68.70993,-0.40782 137.41457,-0.81662 206.1225,-1.22644 -12.33222,-4.15 -24.66493,-8.30083 -36.9989,-12.45275"
       sodipodi:nodetypes="cccc" />
    <path
       style="fill:none;stroke:#000000;stroke-width:3.09921;stroke-linecap:round;stroke-dasharray:none"
       d="m 514.69961,741.22354 c -1.69055,3.50405 -4.6262,5.94627 -2.83977,9.45031 -6.81365,5.74887 113.64594,7.24093 130.63246,-0.0327 0.67684,-3.6458 0.58641,-7.39185 -2.91871,-11.73464"
       id="path1188"
       sodipodi:nodetypes="cccc" />
    <path
       style="fill:none;stroke:#000000;stroke-width:3.09921;stroke-linecap:round;stroke-dasharray:none"
       d="m 497.50674,757.34501 c -1.50612,3.31978 -3.79592,7.14886 -2.62803,10.64691 65.5707,4.26239 144.30243,4.12352 160.37736,-0.87603 4.4091,-3.48892 2.17787,-5.91539 2.56064,-8.7601"
       id="path1190"
       sodipodi:nodetypes="cccc" />
  </g>
</svg>
