<?xml version="1.0" encoding="UTF-8" standalone="no"?>
<!-- Created with Inkscape (http://www.inkscape.org/) -->

<svg
   version="1.1"
   id="svg3751"
   width="700"
   height="748"
   viewBox="0 0 700 748"
   sodipodi:docname="socket.svg"
   inkscape:version="1.2.2 (732a01da63, 2022-12-09)"
   xml:space="preserve"
   inkscape:export-filename="socket.png"
   inkscape:export-xdpi="96"
   inkscape:export-ydpi="96"
   xmlns:inkscape="http://www.inkscape.org/namespaces/inkscape"
   xmlns:sodipodi="http://sodipodi.sourceforge.net/DTD/sodipodi-0.dtd"
   xmlns="http://www.w3.org/2000/svg"
   xmlns:svg="http://www.w3.org/2000/svg"><defs
     id="defs3755" /><sodipodi:namedview
     id="namedview3753"
     pagecolor="#ffffff"
     bordercolor="#000000"
     borderopacity="0.25"
     inkscape:showpageshadow="2"
     inkscape:pageopacity="0.0"
     inkscape:pagecheckerboard="0"
     inkscape:deskcolor="#d1d1d1"
     showgrid="false"
     inkscape:zoom="0.35093583"
     inkscape:cx="225.11238"
     inkscape:cy="-51.291428"
     inkscape:window-width="1920"
     inkscape:window-height="974"
     inkscape:window-x="-11"
     inkscape:window-y="-11"
     inkscape:window-maximized="1"
     inkscape:current-layer="g3757" /><g
     inkscape:groupmode="layer"
     inkscape:label="Image"
     id="g3757"><path
       style="fill:none;stroke:#000000;stroke-width:5.065;stroke-linecap:round;stroke-dasharray:none"
       d="m 375.51321,478.87494 -17.09929,28.37075 C 325.00614,545.97116 191.91924,465.55373 270.2197,386.87105 l -2.26425,-133.72152 21.41986,-26.26211 c 12.99997,-11.30939 76.22018,1.29357 78.50151,21.9075 l 1.71898,146.69307 4.9264,5.91977"
       id="path3880"
       sodipodi:nodetypes="cccccccc"
       inkscape:export-filename="socket.png"
       inkscape:export-xdpi="96"
       inkscape:export-ydpi="96" /><path
       style="fill:none;stroke:#000000;stroke-width:5.29584897;stroke-linecap:round;stroke-dasharray:none"
       id="path3934"
       sodipodi:type="arc"
       sodipodi:cx="-174.79579"
       sodipodi:cy="-299.81195"
       sodipodi:rx="27.854544"
       sodipodi:ry="22.154343"
       sodipodi:start="5.0435976"
       sodipodi:end="5.0410272"
       sodipodi:open="true"
       sodipodi:arc-type="arc"
       d="m -165.73788,-320.7622 a 27.854544,22.154343 0 0 1 17.28855,28.14107 27.854544,22.154343 0 0 1 -35.37051,13.76868 27.854544,22.154343 0 0 1 -17.33401,-28.12339 27.854544,22.154343 0 0 1 35.34824,-13.80481"
       transform="matrix(-0.9971992,0.07479144,-0.47137182,-0.88193458,0,0)" /><path
       style="fill:none;stroke:#000000;stroke-width:5.065;stroke-linecap:round;stroke-dasharray:none"
       d="m 367.46243,248.39781 -19.07191,28.47344 c -24.49696,8.03876 -64.82825,-0.32393 -80.21035,-23.76067"
       id="path4299"
       sodipodi:nodetypes="ccc" /><path
       style="fill:none;stroke:#000000;stroke-width:5.065;stroke-linecap:round;stroke-dasharray:none"
       d="m 373.90423,474.27057 c -38.91108,92.64691 -32.57441,-47.42852 -2.76584,-65.61819"
       id="path4310"
       sodipodi:nodetypes="cc" /><path
       style="fill:none;stroke:#000000;stroke-width:5.065;stroke-linecap:round;stroke-dasharray:none"
       d="m 369.65623,395.53477 c -20.83624,33.66207 -77.31209,27.29562 -99.16948,-8.74686"
       id="path4312"
       sodipodi:nodetypes="cc" /><path
       style="fill:none;stroke:#000000;stroke-width:5.065;stroke-linecap:round;stroke-dasharray:none"
       d="m 523.08925,473.57459 c -5.87443,-3.29685 -11.11021,-40.7178 -1.24512,-44.5058"
       id="path4316"
       sodipodi:nodetypes="cc" /><path
       style="fill:none;stroke:#000000;stroke-width:5.065;stroke-linecap:round;stroke-dasharray:none"
       d="m 516.57095,473.28303 c -6.93304,-11.62846 -9.59205,-35.46587 -2.68843,-48.48756"
       id="path4318"
       sodipodi:nodetypes="cc" /><path
       style="fill:none;stroke:#000000;stroke-width:5.065;stroke-linecap:round;stroke-dasharray:none"
       d="m 508.91157,473.29029 c -7.25913,-17.04228 -8.62409,-35.45761 -4.3992,-50.91463"
       id="path4320"
       sodipodi:nodetypes="cc" /><path
       style="fill:none;stroke:#000000;stroke-width:5.065;stroke-linecap:round;stroke-dasharray:none"
       d="m 500.88042,473.48228 c -9.40026,-17.77112 -9.92282,-36.29831 -6.03646,-50.79378"
       id="path4322"
       sodipodi:nodetypes="cc" /><path
       style="fill:none;stroke:#000000;stroke-width:5.065;stroke-linecap:round;stroke-dasharray:none"
       d="m 491.67777,473.30906 c -9.8707,-17.54091 -10.27759,-37.25126 -6.73686,-51.44546"
       id="path4324"
       sodipodi:nodetypes="cc" /><path
       style="fill:none;stroke:#000000;stroke-width:5.065;stroke-linecap:round;stroke-dasharray:none"
       d="m 482.34473,473.85852 c -9.68222,-16.28906 -10.01431,-33.69787 -6.71599,-51.0623"
       id="path4326"
       sodipodi:nodetypes="cc" /><path
       style="fill:none;stroke:#000000;stroke-width:5.065;stroke-linecap:round;stroke-dasharray:none"
       d="M 473.57852,473.42544 C 465.6957,456.20849 462.44355,438.56601 466.3796,422.28053"
       id="path4328"
       sodipodi:nodetypes="cc" /><path
       style="fill:none;stroke:#000000;stroke-width:5.065;stroke-linecap:round;stroke-dasharray:none"
       d="m 464.86423,473.72026 c -8.96272,-18.25827 -9.55337,-35.86027 -6.64508,-52.30943"
       id="path4330"
       sodipodi:nodetypes="cc" /><path
       style="fill:none;stroke:#000000;stroke-width:5.065;stroke-linecap:round;stroke-dasharray:none"
       d="m 455.94163,473.64589 c -10.3191,-19.39706 -11.52432,-37.03775 -7.1007,-53.59369"
       id="path4332"
       sodipodi:nodetypes="cc" /><path
       style="fill:none;stroke:#000000;stroke-width:5.065;stroke-linecap:round;stroke-dasharray:none"
       d="m 447.4944,473.85756 c -11.50616,-18.66263 -11.17581,-36.7988 -7.45865,-54.78434"
       id="path4334"
       sodipodi:nodetypes="cc" /><path
       style="fill:none;stroke:#000000;stroke-width:5.065;stroke-linecap:round;stroke-dasharray:none"
       d="m 438.02473,473.76749 c -8.37904,-18.12944 -11.96312,-36.54281 -6.59883,-55.48607"
       id="path4336"
       sodipodi:nodetypes="cc" /><path
       style="fill:none;stroke:#000000;stroke-width:5.065;stroke-linecap:round;stroke-dasharray:none"
       d="m 429.97731,474.04381 c -13.01804,-20.5258 -11.88796,-39.09991 -6.38608,-57.16754"
       id="path4338"
       sodipodi:nodetypes="cc" /><path
       style="fill:none;stroke:#000000;stroke-width:5.065;stroke-linecap:round;stroke-dasharray:none"
       d="m 421.92129,474.95738 c -9.01286,-20.01337 -13.4303,-43.10882 -6.8552,-58.96127"
       id="path4340"
       sodipodi:nodetypes="cc" /><path
       style="fill:none;stroke:#000000;stroke-width:5.065;stroke-linecap:butt;stroke-linejoin:round;stroke-dasharray:none;paint-order:markers fill stroke"
       d="m 415.06869,415.98972 c 2.25196,-0.5176 4.81114,-0.65382 8.64627,0.79378 4.16041,-0.77865 5.77255,0.52235 7.73424,1.53809 2.42514,-2.33131 5.33967,-1.85865 8.63538,0.79843 3.56823,-3.28818 6.48272,-2.95359 8.82154,0.57087 4.69983,-4.89705 8.15309,-1.75664 9.37824,1.35861 2.28747,-6.5082 7.6034,-3.12727 7.99106,1.04645 4.88738,-5.70001 7.64202,-4.4698 9.19276,0.67232 3.08907,-5.0011 6.24772,-5.25772 9.46994,-1.18114 3.64398,-3.08447 7.13894,-4.50179 10.02637,0.87783 2.56698,-3.58057 6.96613,-4.06022 9.41435,-0.0477 3.72033,-2.60626 6.90411,-1.6896 9.69028,1.83786 3.35986,0.6418 5.85244,2.44324 7.96385,4.75491 7.21837,2.30344 14.07566,39.72218 1.06818,44.71718 -1.59384,0.76905 -1.62921,4.22947 -6.25854,-0.24374 1.78054,3.5835 -1.18704,8.19545 -7.8106,0.0969 5.3564,7.43476 -2.54476,9.89617 -8.06692,-0.18647 2.79731,8.79858 -5.68796,8.29574 -9.28577,0.01 3.22353,9.41385 -6.40321,7.40675 -9.0219,0.70426 1.56886,7.79999 -7.04519,4.71597 -8.98479,-0.57879 1.25882,5.94289 -4.37174,6.96891 -8.52836,0.28999 0.64417,5.87513 -6.42431,5.08229 -8.93501,0.23631 -2.67485,5.89486 -6.21576,2.31976 -8.75005,0.006 -2.14927,3.89069 -5.54986,2.55434 -9.27502,-0.13767 -2.37032,2.53501 -5.0898,2.62277 -8.14684,0.34413 -2.90173,1.252 -5.60999,1.77445 -7.97195,0.9912 l -6.67972,0.0384 c -14.59988,34.47532 -25.15331,5.63312 -27.7171,-9.03672 l -2.78426,-44.77429 c 3.67196,-39.43259 19.62891,-25.23658 27.16012,-7.02959 z"
       id="path4342"
       sodipodi:nodetypes="ccccccccccccccccccccccccccccccc" /><path
       style="fill:none;stroke:#000000;stroke-width:5.065;stroke-linecap:butt;stroke-linejoin:round;stroke-dasharray:none;paint-order:markers fill stroke"
       d="m 401.21844,491.48247 c -3.97747,0.83885 -12.24397,1.95309 -15.29881,0.20316 -8.94195,-6.51034 -12.00691,-16.65864 -15.00858,-26.8461 l -1.42158,-45.59882 c 1.6143,-15.51003 8.43309,-29.32042 23.75878,-22.30372"
       id="path4344"
       sodipodi:nodetypes="ccccc" /><path
       style="fill:none;stroke:#000000;stroke-width:5.065;stroke-linecap:butt;stroke-linejoin:round;stroke-dasharray:none;paint-order:markers fill stroke"
       d="m 370.35026,464.6582 -21.47394,-2.47795"
       id="path4346" /><path
       style="fill:none;stroke:#000000;stroke-width:5.065;stroke-linecap:butt;stroke-linejoin:round;stroke-dasharray:none;paint-order:markers fill stroke"
       d="m 369.27991,419.5858 -6.17368,-2.3563"
       id="path4348" /><path
       style="fill:none;stroke:#000000;stroke-width:5.065;stroke-linecap:butt;stroke-linejoin:round;stroke-dasharray:none;paint-order:markers fill stroke"
       d="m 415.36933,475.19519 -12.77056,0.4683 c -10.52367,-5.90484 -15.60966,-54.685 -3.54754,-60.944 l 12.92531,-0.13467"
       id="path5829"
       sodipodi:nodetypes="cccc" /></g></svg>
