<?xml version="1.0" encoding="UTF-8" standalone="no"?>
<!-- Created with Inkscape (http://www.inkscape.org/) -->

<svg
   version="1.1"
   id="svg132"
   width="2600"
   height="4624"
   viewBox="0 0 2600 4624"
   sodipodi:docname="stand4.svg"
   inkscape:version="1.2.2 (732a01da63, 2022-12-09)"
   inkscape:export-filename="stand4.png"
   inkscape:export-xdpi="96"
   inkscape:export-ydpi="96"
   xmlns:inkscape="http://www.inkscape.org/namespaces/inkscape"
   xmlns:sodipodi="http://sodipodi.sourceforge.net/DTD/sodipodi-0.dtd"
   xmlns="http://www.w3.org/2000/svg"
   xmlns:svg="http://www.w3.org/2000/svg">
  <defs
     id="defs136" />
  <sodipodi:namedview
     id="namedview134"
     pagecolor="#ffffff"
     bordercolor="#000000"
     borderopacity="0.25"
     inkscape:showpageshadow="2"
     inkscape:pageopacity="0.0"
     inkscape:pagecheckerboard="0"
     inkscape:deskcolor="#d1d1d1"
     showgrid="false"
     inkscape:zoom="0.16046713"
     inkscape:cx="479.84905"
     inkscape:cy="2766.9218"
     inkscape:window-width="1920"
     inkscape:window-height="974"
     inkscape:window-x="-11"
     inkscape:window-y="-11"
     inkscape:window-maximized="1"
     inkscape:current-layer="g138" />
  <g
     inkscape:groupmode="layer"
     inkscape:label="Image"
     id="g138">
    <path
       style="fill:none;stroke:#000000;stroke-width:7.93701;stroke-linecap:round;stroke-dasharray:none"
       d="m 979.91426,2178.6477 1.59518,1441.2526 m 84.12936,40.1841 5.4629,-1475.4476"
       id="path300"
       sodipodi:nodetypes="cccc"
       inkscape:export-filename="stand2.png"
       inkscape:export-xdpi="96"
       inkscape:export-ydpi="96" />
    <path
       style="fill:none;stroke:#000000;stroke-width:7.93700787;stroke-linecap:round;stroke-dasharray:none"
       d="m 981.49559,3610.3438 0.39228,149.3555 c 33.59713,15.2718 45.43893,10.9849 83.60463,0.3169 l 0.1639,-118.3569"
       id="path952"
       sodipodi:nodetypes="cccc" />
    <path
       style="fill:none;stroke:#000000;stroke-width:7.93700787;stroke-linecap:round;stroke-dasharray:none"
       d="m 1070.7548,3757.0974 c 1.7506,-0.6986 145.8406,-10.4527 145.8406,-10.4527 l 84.6672,5.7785 -152.6918,11.6575 247.8199,15.1704 -86.5234,-0.7338 -1.8943,122.7912 88.1082,-17.3214 0.2719,-104.766"
       id="path585"
       sodipodi:nodetypes="ccccccccc" />
    <path
       style="fill:none;stroke:#000000;stroke-width:7.93700787;stroke-linecap:round;stroke-dasharray:none"
       d="m 1307.8585,3901.3764 -287.7691,-33.1985 0.014,-96.381 289.93,6.7731"
       id="path587"
       sodipodi:nodetypes="cccc" />
    <path
       style="fill:none;stroke:#000000;stroke-width:7.93700787;stroke-linecap:round;stroke-dasharray:none"
       d="m 1019.7799,3868.1779 -290.89077,34.5827 -4.806,-121.053 295.80067,-9.94"
       id="path589"
       sodipodi:nodetypes="cccc" />
    <path
       style="fill:none;stroke:#000000;stroke-width:7.93700787;stroke-linecap:round;stroke-dasharray:none"
       d="m 728.83203,3902.8479 c -24.7376,-4.6939 -48.3812,-10.9931 -73.1188,-16.8598 l -2.8735,-106.984 71.0981,2.7172"
       id="path591"
       sodipodi:nodetypes="cccc" />
    <path
       style="fill:none;stroke:#000000;stroke-width:7.93700787;stroke-linecap:round;stroke-dasharray:none"
       d="m 652.90553,3778.915 248.9708,-12.0148 -149.1589,-8.6457 c -0.3551,-4.8964 1.4403,-7.1225 4.7966,-7.4105 l 221.83347,-6.2441"
       id="path593"
       sodipodi:nodetypes="ccccc" />
    <ellipse
       style="fill:none;stroke:#000000;stroke-width:6.26856;stroke-linecap:round;stroke-dasharray:none"
       id="path2555"
       cx="324.93274"
       cy="2268.6733"
       rx="16.848862"
       ry="30.717937"
       transform="matrix(0.94171458,-0.33641291,0.25089532,0.96801422,0,0)" />
    <path
       style="fill:none;stroke:#000000;stroke-width:6.256;stroke-linecap:round;stroke-dasharray:none"
       d="m 904.93715,2062.6785 9.6525,-1.6721 -4.6738,-83.3504 117.43055,28.0432 130.6731,-36.2225 2.5337,191.3289 -125.8368,31.1017 -114.08055,-32.7737 -5.817,-62.8101 35.7984,-5.5213 c 3.2109,-10.8453 0.8291,-28.2572 -9.3477,-34.8591 l -26.6799,5.0633"
       id="path2557-3"
       sodipodi:nodetypes="cccccccccccc" />
    <path
       style="fill:none;stroke:#000000;stroke-width:6.256;stroke-linecap:round;stroke-dasharray:none"
       d="m 867.20645,2056.6813 c 8.537,-3.6283 17.5396,-5.8596 27.5409,-5.0951 8.7738,8.51 15.6387,17.9342 20.3803,28.6426 0.1767,11.648 -1.1334,23.1401 -7.1606,36.2163 l -26.4393,0.5508"
       id="path2563"
       sodipodi:nodetypes="ccccc" />
    <path
       style="fill:none;stroke:#000000;stroke-width:6.256;stroke-linecap:round;stroke-dasharray:none"
       d="m 892.54405,2085.3238 21.7574,-4.8196"
       id="path2565"
       sodipodi:nodetypes="cc" />
    <path
       style="fill:none;stroke:#000000;stroke-width:3.37991;stroke-linecap:round;stroke-dasharray:none"
       d="m 936.74735,2057.2321 c 9.2634,12.2307 12.3008,21.7788 8.1246,34.1508"
       id="path2575"
       sodipodi:nodetypes="cc" />
    <path
       style="fill:none;stroke:#000000;stroke-width:3.37991;stroke-linecap:round;stroke-dasharray:none"
       d="m 930.68835,2057.9206 c 9.2634,12.2307 12.3008,21.7788 8.1245,34.1508"
       id="path2577"
       sodipodi:nodetypes="cc" />
    <path
       style="fill:none;stroke:#000000;stroke-width:3.37991;stroke-linecap:round;stroke-dasharray:none"
       d="m 924.65435,2059.2823 c 9.2634,12.2307 11.8627,21.2433 7.6864,33.6153"
       id="path2579"
       sodipodi:nodetypes="cc" />
    <path
       style="fill:none;stroke:#000000;stroke-width:3.37991;stroke-linecap:round;stroke-dasharray:none"
       d="m 918.68435,2060.3756 c 9.2635,12.2307 11.9114,21.3893 7.7351,33.7613"
       id="path2581"
       sodipodi:nodetypes="cc" />
    <path
       style="fill:none;stroke:#000000;stroke-width:3.37991;stroke-linecap:round;stroke-dasharray:none"
       d="m 911.96045,2061.5008 c 9.2635,12.2307 11.7501,20.5395 7.5738,32.9115"
       id="path2583"
       sodipodi:nodetypes="cc" />
    <path
       style="fill:none;stroke:#000000;stroke-width:6.256;stroke-linecap:round;stroke-dasharray:none"
       d="m 1027.3293,2005.5928 7.7196,186.1768"
       id="path2585-8"
       sodipodi:nodetypes="cc" />
    <path
       style="fill:none;stroke:#000000;stroke-width:6.256;stroke-linecap:round;stroke-dasharray:none"
       d="m 1073.1112,2120.5981 13.632,32.3275 32.3275,-5.8424 15.5796,-31.9379 -15.5796,-29.2117 -28.4326,1.558 z"
       id="path2587"
       sodipodi:nodetypes="ccccccc" />
    <path
       style="fill:none;stroke:#000000;stroke-width:6.256;stroke-linecap:round;stroke-dasharray:none"
       d="m 1090.8389,2087.5271 -11.8426,-9.6393 c -13.6458,11.171 -19.6209,19.563 -20.2997,41.3586 1.6862,16.4214 9.6615,26.7592 22.1877,38.1501 l 6.0537,-4.6657"
       id="path2591"
       sodipodi:nodetypes="ccccc" />
    <path
       style="fill:none;stroke:#000000;stroke-width:6.256;stroke-linecap:round;stroke-dasharray:none"
       d="m 1060.9073,2120.1338 12.6907,0.5616"
       id="path2593"
       sodipodi:nodetypes="cc" />
    <path
       style="fill:none;stroke:#000000;stroke-width:3.37991;stroke-linecap:round;stroke-dasharray:none"
       d="m 1081.8481,2157.7402 36.1139,-6.3543"
       id="path2595"
       sodipodi:nodetypes="cc" />
    <path
       style="fill:none;stroke:#000000;stroke-width:3.37991;stroke-linecap:round;stroke-dasharray:none"
       d="m 1118.8273,2147.1319 -0.9423,4.1374"
       id="path2597"
       sodipodi:nodetypes="cc" />
    <path
       style="fill:none;stroke:#000000;stroke-width:6.256;stroke-linecap:round;stroke-dasharray:none"
       d="m 1078.7209,2077.8878 c 8.6748,-5.1842 16.542,-6.3302 24.5114,-7.9869 4.2878,4.1042 10.0392,9.672 16.5246,15.9738"
       id="path3325"
       sodipodi:nodetypes="ccc" />
    <ellipse
       style="fill:none;stroke:#000000;stroke-width:4.15369;stroke-linecap:round;stroke-dasharray:none"
       id="path4053"
       cx="1123.9393"
       cy="2054.7749"
       rx="19.733719"
       ry="24.212831" />
    <path
       style="fill:none;stroke:#000000;stroke-width:6.256;stroke-linecap:round;stroke-dasharray:none"
       d="m 909.75715,1976.6748 89.0531,-23.4428 m 56.65275,-1.4216 102.5758,16.7398"
       id="path4781-4"
       sodipodi:nodetypes="cccc" />
    <path
       style="fill:none;stroke:#000000;stroke-width:5.065;stroke-linecap:round"
       d="m 1000.2292,1933.5732 0.2754,44.3409 c 25.442,15.0809 39.1761,6.7458 53.9802,0.5508 l 0.5508,-44.3408"
       id="path502"
       sodipodi:nodetypes="cccc" />
    <ellipse
       style="fill:none;stroke:#000000;stroke-width:5.51728;stroke-linecap:round"
       id="path558"
       cx="1027.4949"
       cy="1935.5012"
       rx="27.0394"
       ry="10.514829" />
    <path
       style="fill:none;stroke:#000000;stroke-width:5.065;stroke-linecap:round"
       d="m 1000.8272,1960.8352 c 25.3213,9.9643 38.8529,4.8227 52.7408,0.1378"
       id="path570"
       sodipodi:nodetypes="cc" />
  </g>
</svg>
