<?xml version="1.0" encoding="UTF-8" standalone="no"?>
<!-- Created with Inkscape (http://www.inkscape.org/) -->

<svg
   version="1.1"
   id="svg132"
   width="2600"
   height="4624"
   viewBox="0 0 2600 4624"
   sodipodi:docname="stand2.svg"
   inkscape:version="1.2.2 (732a01da63, 2022-12-09)"
   inkscape:export-filename="stand2.png"
   inkscape:export-xdpi="96"
   inkscape:export-ydpi="96"
   xmlns:inkscape="http://www.inkscape.org/namespaces/inkscape"
   xmlns:sodipodi="http://sodipodi.sourceforge.net/DTD/sodipodi-0.dtd"
   xmlns="http://www.w3.org/2000/svg"
   xmlns:svg="http://www.w3.org/2000/svg">
  <defs
     id="defs136" />
  <sodipodi:namedview
     id="namedview134"
     pagecolor="#ffffff"
     bordercolor="#000000"
     borderopacity="0.25"
     inkscape:showpageshadow="2"
     inkscape:pageopacity="0.0"
     inkscape:pagecheckerboard="0"
     inkscape:deskcolor="#d1d1d1"
     showgrid="false"
     inkscape:zoom="0.080233565"
     inkscape:cx="-398.83557"
     inkscape:cy="3009.9622"
     inkscape:window-width="1920"
     inkscape:window-height="974"
     inkscape:window-x="-11"
     inkscape:window-y="-11"
     inkscape:window-maximized="1"
     inkscape:current-layer="g138" />
  <g
     inkscape:groupmode="layer"
     inkscape:label="Image"
     id="g138">
    <path
       style="fill:none;stroke:#000000;stroke-width:10.0346;stroke-linecap:round;stroke-dasharray:none"
       d="m 986.52409,2179.1985 -5.01465,1440.7018 -188.51213,-169.8167 -116.06739,70.1078 249.27224,222.787 -354.43397,221.2292 98.15095,106.7196 351.31806,-239.1455 299.1267,278.8733 127.752,-93.4771 -308.4744,-266.4097 286.6631,-184.6173 -98.9299,-77.8975 -261.7359,172.9326 20.5632,-1483.8671"
       id="path300"
       sodipodi:nodetypes="ccccccccccccccc"
       inkscape:export-filename="stand2.png"
       inkscape:export-xdpi="96"
       inkscape:export-ydpi="96" />
    <path
       style="fill:none;stroke:#000000;stroke-width:10.41259843;stroke-linecap:round;stroke-dasharray:none"
       d="m 981.49556,3620.8256 -3.50253,161.0401 c 26.71187,18.397 58.97307,16.4194 87.49947,-2.02 l 0.1639,-118.3569"
       id="path952"
       sodipodi:nodetypes="cccc" />
    <path
       style="fill:none;stroke:#000000;stroke-width:6.25600014;stroke-linecap:round;stroke-dasharray:none"
       d="m 676.08412,3520.6163 -0.90689,56.4403 206.81806,193.5755"
       id="path954"
       sodipodi:nodetypes="ccc" />
    <path
       style="fill:none;stroke:#000000;stroke-width:6.25600014;stroke-linecap:round;stroke-dasharray:none"
       d="m 570.64852,3964.8643 8.26228,61.6228 91.43596,106.3081 347.84224,-232.7211 300.2274,268.2251 130.7412,-101.7751 -0.356,-48.8"
       id="path956"
       sodipodi:nodetypes="ccccccc" />
    <path
       style="fill:none;stroke:#000000;stroke-width:6.25600014;stroke-linecap:round;stroke-dasharray:none"
       d="m 1184.4326,3788.938 243.0404,-167.0903 -0.3894,-55.1125"
       id="path958"
       sodipodi:nodetypes="ccc" />
    <path
       style="fill:none;stroke:#000000;stroke-width:6.25600014;stroke-linecap:round;stroke-dasharray:none"
       d="m 670.20905,4070.8281 c 0,2.2032 0.55082,60.5901 0.55082,60.5901"
       id="path960"
       sodipodi:nodetypes="cc" />
    <path
       style="fill:none;stroke:#000000;stroke-width:6.25600014;stroke-linecap:round;stroke-dasharray:none"
       d="m 1020.8958,3834.0289 -2.398,65.2801"
       id="path962"
       sodipodi:nodetypes="cc" />
    <path
       style="fill:none;stroke:#000000;stroke-width:6.25600014;stroke-linecap:round;stroke-dasharray:none"
       d="m 1320.1755,4110.9001 -1.2394,56.1836"
       id="path964"
       sodipodi:nodetypes="cc" />
    <path
       style="fill:none;stroke:#000000;stroke-width:7.01102362;stroke-linecap:round;stroke-dasharray:none"
       d="m 905.5593,2058.0539 -4.67386,-83.3504 117.43066,28.0432 130.6731,-36.2225 2.5337,191.3289 -125.8368,31.1017 -114.0806,-32.7737 -6.20651,-102.3431"
       id="path2557"
       sodipodi:nodetypes="cccccccc" />
    <path
       style="fill:none;stroke:#000000;stroke-width:7.01102362;stroke-linecap:round;stroke-dasharray:none"
       d="m 1018.299,2002.6403 7.7196,186.1768"
       id="path2585"
       sodipodi:nodetypes="cc" />
    <path
       style="fill:none;stroke:#000000;stroke-width:7.01102362;stroke-linecap:round;stroke-dasharray:none"
       d="m 900.72682,1973.7223 118.15068,-28.918 130.131,20.7934"
       id="path4781"
       sodipodi:nodetypes="ccc" />
  </g>
</svg>
